# xmcd CD database file
#
# Track frame offsets:
#	182
#	17350
#	36382
#	56635
#	75575
#	94502
#	108960
#	123345
#	146025
#	164175
#	176467
#	190542
#
# Disc length: 2735 seconds
#
# Revision: 3
# Processed by: cddbd v1.5.2PL0 Copyright (c) Steve Scherf et al.
# Submitted via: CDex 2.01
#
DISCID=960aad0c
DTITLE=Sawyer Brown - Hallelujah He Is Born
DYEAR=1997
DGENRE=Country
TTITLE0=Glory To The King
TTITLE1=Sweet Mary Cried
TTITLE2=Oh What A Night In Bethlehem
TTITLE3=Hallelujah He Is Born
TTITLE4=Where Christmas Goes
TTITLE5=Christmas All Year Long
TTITLE6=He Sent A Carpenter
TTITLE7=Angels We Have Heard On High
TTITLE8=Little Drummer Boy
TTITLE9=Just One Night
TTITLE10=The Wiseman's Song
TTITLE11=Little Town Of Bethlehem
EXTD=YEAR: 1997
EXTT0=
EXTT1=
EXTT2=
EXTT3=
EXTT4=
EXTT5=
EXTT6=
EXTT7=
EXTT8=
EXTT9=
EXTT10=
EXTT11=
PLAYORDER=
